<svg width="481" height="92" viewBox="0 0 481 92" fill="none" xmlns="http://www.w3.org/2000/svg">
<path d="M56 36H20V20H40V0H56V36Z" fill="white"/>
<path d="M56 56L56 20L72 20L72 40L92 40L92 56L56 56Z" fill="#8F68FC"/>
<path d="M36 56L72 56L72 72L52 72L52 92L36 92L36 56Z" fill="#05D2DD"/>
<path d="M36 36L36 72L20 72L20 52L-8.74228e-07 52L-1.57361e-06 36L36 36Z" fill="#FF961C"/>
<path d="M128.206 59.7538C126.069 57.7501 125 54.5441 125 50.1358C125 47.197 125.534 44.6589 126.603 42.5216C127.672 40.3842 129.141 38.7812 131.011 37.7126C132.881 36.6439 134.885 36.1096 137.29 36.1096C140.095 36.1096 142.499 36.7775 144.503 38.1133V24.4878L151.717 25.1557V62.1583H145.438L145.038 59.7538C143.969 60.6889 142.767 61.4904 141.431 61.8912C140.095 62.2919 138.626 62.5591 136.755 62.5591C133.149 62.6927 130.21 61.624 128.206 59.7538ZM141.832 56.815C142.767 56.4142 143.568 55.8799 144.37 55.0784V43.4566C142.9 42.1208 141.164 41.4529 139.16 41.4529C136.889 41.4529 135.286 42.2544 134.084 43.7238C133.015 45.0596 132.347 47.197 132.347 50.1358C132.347 52.8075 132.881 54.6777 133.95 55.7463C135.019 56.815 136.622 57.3493 138.759 57.3493C139.961 57.3493 140.896 57.2157 141.832 56.815Z" fill="white"/>
<path d="M160.533 59.3531C157.995 57.0822 156.793 53.7426 156.793 49.3343C156.793 45.1932 157.862 41.9872 160.132 39.5827C162.403 37.3118 165.609 36.1096 169.75 36.1096C173.624 36.1096 176.697 37.1782 178.834 39.182C180.971 41.1857 182.04 43.991 182.04 47.3306V52.006H163.472C163.873 54.0097 164.674 55.3456 166.144 56.1471C167.613 56.9486 169.75 57.3493 172.556 57.3493C173.892 57.3493 175.361 57.2157 176.697 56.9486C178.033 56.6814 179.368 56.4142 180.304 56.0135V61.0897C177.899 62.1583 174.827 62.6927 170.953 62.6927C166.678 62.6927 163.071 61.624 160.533 59.3531ZM175.628 47.4642V46.1283C175.628 42.9223 173.758 41.4529 170.018 41.4529C167.613 41.4529 166.01 41.9872 165.075 42.9223C164.14 43.8574 163.606 45.4604 163.606 47.5977H175.628V47.4642Z" fill="white"/>
<path d="M188.452 42.2544H184.845V36.6439H188.452V32.77C188.452 30.0983 189.254 27.8274 190.723 26.2244C192.326 24.4878 194.463 23.6863 197.402 23.6863C199.54 23.6863 201.41 24.087 203.146 24.7549V29.6975C202.078 29.2968 201.009 29.1632 199.94 29.1632C198.337 29.1632 197.269 29.4304 196.734 29.9647C196.066 30.499 195.799 31.4341 195.799 32.9035V36.6439H200.742L200.074 42.2544H195.933V62.1583H188.719V42.2544H188.452Z" fill="white"/>
<path d="M224.119 36.6439H230.531L230.932 39.0484C232.134 38.1133 233.336 37.3118 234.672 36.911C236.008 36.3767 237.477 36.2431 239.347 36.2431C243.221 36.2431 246.16 37.3118 248.03 39.3155C250.034 41.4529 250.969 44.6589 250.969 49.2007C250.969 53.7425 249.901 57.0821 247.763 59.353C245.626 61.624 242.687 62.8262 238.813 62.8262C235.874 62.8262 233.47 62.1583 231.466 60.8225V73.9136H224.253V36.6439H224.119ZM241.886 55.3455C242.954 54.0097 243.489 51.8724 243.489 49.0671C243.489 46.3954 242.954 44.3917 242.019 43.1894C240.95 41.9872 239.347 41.4529 237.21 41.4529C234.939 41.4529 233.069 42.2544 231.466 43.7238V55.3455C232.268 56.0135 233.069 56.4142 234.004 56.815C234.806 57.0821 235.874 57.3493 236.943 57.3493C239.08 57.3493 240.817 56.6814 241.886 55.3455Z" fill="#8F68FC"/>
<path d="M255.912 36.6439H262.591L262.858 39.3156C264.06 38.5141 265.53 37.8461 267.133 37.3118C268.869 36.7775 270.472 36.3767 272.075 36.1096V41.5865C270.472 41.8536 268.869 42.1208 267.133 42.6551C265.396 43.1895 263.927 43.7238 262.992 44.2581V62.0248H255.912V36.6439Z" fill="#8F68FC"/>
<path d="M280.09 41.9872H276.216L276.884 36.6439H287.304V62.1583H280.09V41.9872V41.9872Z" fill="#8F68FC"/>
<path d="M293.582 36.6439H300.262L300.529 39.182C303.2 37.1782 306.139 36.1096 309.212 36.1096C310.948 36.1096 312.284 36.3767 313.353 36.9111C314.421 37.4454 315.089 38.2469 315.757 39.3156C317.093 38.2469 318.429 37.579 320.032 37.0446C321.501 36.5103 323.371 36.2431 325.242 36.2431C328.18 36.2431 330.318 37.0446 331.787 38.5141C333.257 39.9835 333.925 42.388 333.925 45.4604V62.2919H326.711V46.2619C326.711 44.6589 326.31 43.4566 325.642 42.6551C324.974 41.8536 323.772 41.5865 322.169 41.5865C321.101 41.5865 320.165 41.8536 319.23 42.2544C318.295 42.6551 317.494 43.1895 316.826 43.991C316.959 44.6589 317.093 45.3268 317.093 46.2619V62.4255H310.28V46.3955C310.28 44.7925 310.013 43.5902 309.479 42.7887C308.944 41.9872 307.876 41.7201 306.406 41.7201C304.536 41.7201 302.666 42.6551 300.796 44.5253V62.5591H293.582V36.6439V36.6439Z" fill="#8F68FC"/>
<path d="M342.474 59.3531C339.936 57.0822 338.734 53.7426 338.734 49.3343C338.734 45.1932 339.802 41.9872 342.073 39.5827C344.344 37.3118 347.55 36.1096 351.691 36.1096C355.565 36.1096 358.638 37.1782 360.775 39.182C362.912 41.1857 363.981 43.991 363.981 47.3306V52.006H345.413C345.814 54.0097 346.615 55.3456 348.084 56.1471C349.554 56.9486 351.691 57.3493 354.496 57.3493C355.832 57.3493 357.302 57.2157 358.638 56.9486C359.973 56.6814 361.309 56.4142 362.244 56.0135V61.0897C359.84 62.1583 356.767 62.6927 352.893 62.6927C348.619 62.6927 345.012 61.624 342.474 59.3531ZM357.569 47.4642V46.1283C357.569 42.9223 355.699 41.4529 351.958 41.4529C349.554 41.4529 347.951 41.9872 347.016 42.9223C346.081 43.8574 345.546 45.4604 345.546 47.5977H357.569V47.4642Z" fill="#8F68FC"/>
<path d="M387.224 59.353C384.82 57.0821 383.618 53.7425 383.618 49.4679C383.618 45.0596 384.953 41.72 387.492 39.5827C390.03 37.3118 393.503 36.2431 398.045 36.2431C399.781 36.2431 401.384 36.3767 402.72 36.6439C404.056 36.911 405.258 37.3118 406.46 37.8461V43.0559C404.457 42.1208 402.186 41.72 399.514 41.72C396.709 41.72 394.571 42.2544 393.236 43.4566C391.9 44.6589 391.098 46.6626 391.098 49.6015C391.098 52.4067 391.766 54.4105 393.102 55.6127C394.438 56.815 396.575 57.4829 399.514 57.4829C402.186 57.4829 404.457 56.9485 406.594 56.0135V61.3568C404.189 62.4255 401.251 62.9598 397.911 62.9598C393.236 62.6926 389.762 61.4904 387.224 59.353Z" fill="white"/>
<path d="M408.598 49.3343C408.598 45.0596 409.8 41.72 412.071 39.4491C414.342 37.1782 417.815 35.976 422.49 35.976C427.166 35.976 430.639 37.1782 432.91 39.4491C435.181 41.72 436.383 45.0596 436.383 49.3343C436.383 58.1508 431.708 62.6926 422.49 62.6926C413.14 62.6926 408.598 58.2844 408.598 49.3343ZM427.433 54.8112C428.368 53.7426 428.902 51.8724 428.902 49.3343C428.902 46.7962 428.368 44.926 427.433 43.8574C426.498 42.7887 424.761 42.2544 422.357 42.2544C420.086 42.2544 418.349 42.7887 417.414 43.8574C416.479 44.926 415.945 46.7962 415.945 49.3343C415.945 51.8724 416.479 53.7426 417.414 54.8112C418.349 55.8799 420.086 56.4142 422.357 56.4142C424.761 56.5478 426.364 56.0135 427.433 54.8112Z" fill="white"/>
<path d="M440.658 36.6439H447.337L447.604 39.182C450.276 37.1782 453.215 36.1096 456.287 36.1096C458.024 36.1096 459.359 36.3767 460.428 36.9111C461.497 37.4454 462.165 38.2469 462.833 39.3156C464.168 38.2469 465.504 37.579 467.107 37.0446C468.577 36.5103 470.447 36.2431 472.317 36.2431C475.256 36.2431 477.393 37.0446 478.863 38.5141C480.198 39.9835 481 42.388 481 45.4604V62.2919H473.786V46.2619C473.786 44.6589 473.386 43.4566 472.718 42.6551C472.05 41.8536 470.848 41.5865 469.245 41.5865C468.176 41.5865 467.241 41.8536 466.306 42.2544C465.371 42.6551 464.569 43.1895 463.901 43.991C464.035 44.6589 464.168 45.3268 464.168 46.2619V62.4255H457.356V46.3955C457.356 44.7925 457.089 43.5902 456.554 42.7887C456.02 41.9872 454.951 41.7201 453.482 41.7201C451.612 41.7201 449.741 42.6551 447.871 44.5253V62.5591H440.658V36.6439V36.6439Z" fill="white"/>
<path d="M287.438 24.6213H280.09V31.9684H287.438V24.6213Z" fill="#8F68FC"/>
<path d="M208.89 41.9872H204.482L205.15 36.6439H216.238V62.1583H209.024V41.9872H208.89Z" fill="white"/>
<path d="M377.874 54.9448H370.526V62.2919H377.874V54.9448Z" fill="white"/>
</svg>
